<svg width="104" height="104" fill="none" xmlns="http://www.w3.org/2000/svg"><rect width="104" height="104" rx="52" fill="#E7DEF1"/><circle cx="36" cy="33" r="6" fill="#CDB8E9"/><circle cx="36" cy="52" r="6" fill="#CDB8E9"/><circle cx="36" cy="71" r="6" fill="#CDB8E9"/><path d="M35.709 26c-3.86 0-7 3.14-7 7s3.14 7 7 7 7-3.14 7-7-3.14-7-7-7zm0 12c-2.757 0-5-2.243-5-5s2.243-5 5-5 5 2.243 5 5-2.243 5-5 5z" fill="#9F6FDE"/><path d="M35.047 32.882l-1.35-1.35-1.414 1.414 2.057 2.057a.997.997 0 001.414 0l3.252-3.25-1.414-1.414-2.545 2.543zM35.709 45c-3.86 0-7 3.14-7 7 0 3.859 3.14 7 7 7s7-3.141 7-7c0-3.86-3.14-7-7-7zm0 12c-2.757 0-5-2.243-5-5s2.243-5 5-5 5 2.243 5 5-2.243 5-5 5z" fill="#9F6FDE"/><path d="M35.047 51.883l-1.35-1.35-1.414 1.414 2.057 2.057a.997.997 0 001.414 0l3.252-3.251-1.414-1.414-2.545 2.544zM35.709 64c-3.86 0-7 3.141-7 7s3.14 7 7 7 7-3.141 7-7-3.14-7-7-7zm0 12c-2.757 0-5-2.243-5-5s2.243-5 5-5 5 2.243 5 5-2.243 5-5 5z" fill="#9F6FDE"/><path d="M35.047 70.883l-1.35-1.35-1.414 1.414 2.057 2.057a.997.997 0 001.414 0l3.252-3.251-1.414-1.414-2.545 2.544zM75 30H47v2h28v-2zm-10 4H47v2h18v-2zm10 15H47v2h28v-2zm-10 4H47v2h18v-2zm10 15H47v2h28v-2zm-10 4H47v2h18v-2z" fill="#9F6FDE"/></svg>