<svg width="104" height="104" fill="none" xmlns="http://www.w3.org/2000/svg"><rect width="104" height="104" rx="52" fill="#FEE6E2"/><path d="M41 27c-15 0-18 7-18 7v36c9.108 7.67 26.028 7.527 34.9.893.99 1.492 1.91 2.778 2.6 3.607 2 2.4 5.833 3.667 7.5 4 3.667-2 11.3-6.2 12.5-7 1.5-1 1.5-2.5-.5-12-1.496-7.108-4.952-10.857-7.435-13.55-.836-.908-1.561-1.695-2.065-2.45-1.6-2.4-5.333-3.333-7-3.5L59 42.25V34s-3-7-18-7z" fill="#FFCFC2"/><path d="M82.409 65.257c-.347-3.797-1.79-8.314-4.063-12.719-4.133-8.013-9.966-13.61-14.184-13.61-.716 0-1.38.156-1.975.462l-2.273 1.172v-6.195c0-.012.004-.023.004-.035h-.004c0-4.75-8.148-8.331-18.953-8.331-10.804 0-18.951 3.582-18.951 8.331V45.71H22c0 .03.009.058.01.088v11.291H22c0 .029.009.058.01.088v11.294c0 4.749 8.147 8.33 18.951 8.33 7.326 0 13.806-1.73 16.927-4.46 3.294 4.11 6.869 6.658 9.712 6.659h.001c.715 0 1.379-.155 1.973-.462l10.119-5.217c2.126-1.095 3.091-3.96 2.716-8.064zM52.068 44.605c-1.856.958-2.827 3.264-2.794 6.564-2.545.563-5.392.873-8.317.873-9.918 0-16.843-3.286-16.947-6.264v-7.704c3.068 2.739 9.43 4.587 16.967 4.587 7.513 0 13.857-1.835 16.938-4.56v3.491l-5.847 3.013zm-2.653 8.578c.307 2.667 1.124 5.653 2.378 8.697-3.062.993-6.857 1.539-10.836 1.539-9.918 0-16.843-3.285-16.947-6.262v-7.672c3.084 2.723 9.432 4.557 16.947 4.557 2.96 0 5.847-.306 8.458-.859zM40.961 28c10.141 0 16.953 3.273 16.953 6.331v.027c-.042 2.987-6.984 6.303-16.938 6.303-9.983 0-16.941-3.336-16.941-6.33h-.025c0-3.058 6.811-6.331 16.951-6.331zm0 46.801c-10.14 0-16.951-3.273-16.951-6.33v-7.607c3.084 2.723 9.432 4.556 16.947 4.556 4.263 0 8.346-.604 11.639-1.7.26.558.533 1.115.82 1.671a43.444 43.444 0 003.258 5.35c-2.647 2.443-8.834 4.06-15.713 4.06zm27.696 1.96A2.255 2.255 0 0167.6 77c-2.883 0-8.211-4.391-12.407-12.527-2.158-4.182-3.525-8.438-3.85-11.984-.292-3.192.307-5.417 1.641-6.106l6.746-3.477c-.321 1.265-.422 2.784-.261 4.549.347 3.796 1.79 8.313 4.063 12.718 3.521 6.828 8.016 11.643 11.842 13.125l-6.717 3.463zm10.119-5.217c-2.674 1.379-8.85-3.338-13.466-12.288-2.158-4.181-3.525-8.437-3.85-11.983-.292-3.192.308-5.417 1.643-6.106a2.26 2.26 0 011.059-.24c2.882 0 8.209 4.391 12.406 12.528 2.158 4.181 3.524 8.437 3.849 11.984.292 3.192-.307 5.416-1.641 6.105z" fill="#FB7B60"/></svg>