<svg width="104" height="104" fill="none" xmlns="http://www.w3.org/2000/svg"><rect width="104" height="104" rx="52" fill="#FDF0C3"/><path d="M46 63l30-15v19L46 81.5V63zM30 50l16 14v18L30 68V50zm21.9-27l4.309 8.97 9.862 1.326-7.199 6.87 1.786 9.788-8.758-4.723-8.758 4.723 1.786-9.789-7.199-6.87 9.862-1.326L51.9 23z" fill="#FFDC40"/><path d="M41.9 51.828l10.1-5.31 10.102 5.31-1.929-11.25 8.172-7.964-11.295-1.64L52 20.738l-5.048 10.234-11.295 1.641 8.173 7.964-1.93 11.25zm-1.946-17.816l8.325-1.209L52 25.26l3.721 7.542 8.325 1.21-6.023 5.868 1.422 8.292L52 44.26l-7.443 3.913 1.421-8.29-6.024-5.87z" fill="#FCAD44"/><path d="M68.659 40.248l-1.317 1.505 6.879 6.019-28.067 14.034L31.77 49.22l7.476-3.726-.893-1.79L29 48.366v19.625l16.834 15.207L77 67.755V47.546l-8.341-7.298zM31 51.204l14 12.25V79.75L31 67.104v-15.9zm16 29.185V63.618l28-13.999v16.896L47 80.389z" fill="#FCAD44"/></svg>