<svg width="120" height="83" fill="none" xmlns="http://www.w3.org/2000/svg"><mask id="a" style="mask-type:luminance" maskUnits="userSpaceOnUse" x="33" y="30" width="52" height="51"><path d="M84.787 64.262v16.056H33.786V64.262h3.18v12.96h44.64v-12.96h3.181zM35.376 30.661h49.412v16.055h-3.18V33.757H36.965v12.96h-3.18V30.66h1.59z" fill="#fff"/></mask><g mask="url(#a)"><path d="M84.787 30.66H33.786v49.658h51.001V30.66z" fill="#fff"/></g><mask id="b" style="mask-type:luminance" maskUnits="userSpaceOnUse" x="0" y="49" width="120" height="15"><path d="M113.891 56.748l-1.503-3.646-1.503 3.646h3.006zm-11.624 4.593l-2.653-4.365H98.1v4.365h-3.295V49.94H98.1v4.43h1.596l2.788-4.43h3.48l-3.664 5.514 3.474 5.533 5.008-11.047h3.263l5.186 11.402h-3.447l-.913-2.215h-4.966l-.913 2.215h-6.725zm-13.168-3.886c-.38.122-.746.22-1.095.294a6.669 6.669 0 01-1.397.155c-1.64 0-2.892-.38-3.756-1.14-.865-.76-1.297-1.868-1.297-3.323v-3.502h3.263v3.144c0 .738.187 1.29.56 1.653.374.364.923.545 1.648.545a6.18 6.18 0 001.33-.138 3.9 3.9 0 00.745-.24v-4.965h3.262v11.403H89.1v-3.886zm-14.923 1.443a3.36 3.36 0 001.247-.228c.385-.152.72-.372 1.004-.66a3.1 3.1 0 00.669-1.035 3.55 3.55 0 00.242-1.335c0-.5-.08-.948-.242-1.344a3.119 3.119 0 00-.67-1.026 2.887 2.887 0 00-1.003-.66 3.365 3.365 0 00-1.247-.228c-.446 0-.862.076-1.246.228-.385.152-.72.372-1.004.66-.284.287-.508.63-.67 1.026a3.532 3.532 0 00-.242 1.344c0 .489.081.934.243 1.335a3.1 3.1 0 00.669 1.035c.284.288.619.508 1.004.66.384.152.8.228 1.246.228zm0 2.671c-.936 0-1.801-.146-2.593-.44a6.201 6.201 0 01-2.066-1.246 5.727 5.727 0 01-1.364-1.881 5.676 5.676 0 01-.485-2.362c0-.858.162-1.645.485-2.362a5.725 5.725 0 011.364-1.881 6.2 6.2 0 012.066-1.246 7.421 7.421 0 012.593-.44c.948 0 1.815.147 2.602.44a6.132 6.132 0 012.05 1.246 5.893 5.893 0 011.363 1.881 5.59 5.59 0 01.493 2.362 5.65 5.65 0 01-.493 2.37 5.776 5.776 0 01-1.364 1.882 6.198 6.198 0 01-2.05 1.237c-.786.294-1.653.44-2.6.44zM59.52 55.82h1.84c.693 0 1.208-.147 1.548-.44.34-.293.51-.7.51-1.221 0-.532-.17-.945-.51-1.238-.34-.294-.855-.44-1.547-.44h-1.84v3.34zm-3.312 5.522V49.94h5.354c1.07 0 1.994.168 2.768.505.776.337 1.375.822 1.8 1.458.423.635.635 1.387.635 2.256 0 .858-.212 1.602-.636 2.231-.424.63-1.023 1.116-1.799 1.458-.775.342-1.698.513-2.768.513H59.52v2.98h-3.312v.001zm-6.678-4.593l-1.503-3.646-1.503 3.646h3.006zm-8.28 4.591l5.17-11.402h3.262L54.87 61.34h-3.447l-.913-2.215h-4.966l-.914 2.215h-3.379zm-13.66-2.556a1.2 1.2 0 00.872-.383c.25-.266.452-.638.602-1.116.15-.477.262-1.042.335-1.694.073-.651.125-1.363.159-2.134l.134-3.518h9.435v8.845h1.59v4.854h-3.028v-2.297h-7.496v2.297h-3.044v-4.854h.439zm8.275 0v-6.288h-3.363l-.05 1.238a26.074 26.074 0 01-.125 1.857 14.375 14.375 0 01-.251 1.58 5.242 5.242 0 01-.418 1.23 2.746 2.746 0 01-.233.383h4.44zm-15.676.114a3.36 3.36 0 001.247-.228 2.896 2.896 0 001.003-.66c.285-.288.508-.633.67-1.035.161-.401.242-.847.242-1.335 0-.5-.08-.948-.242-1.344a3.12 3.12 0 00-.67-1.026 2.887 2.887 0 00-1.003-.66 3.364 3.364 0 00-1.247-.228c-.446 0-.862.076-1.246.228a2.89 2.89 0 00-1.004.66c-.285.287-.508.63-.67 1.026a3.528 3.528 0 00-.242 1.344c0 .489.08.934.242 1.335.162.402.385.747.67 1.035.284.288.619.508 1.004.66.384.152.8.228 1.246.228zm0 2.671c-.937 0-1.801-.146-2.593-.44a6.2 6.2 0 01-2.066-1.246 5.726 5.726 0 01-1.364-1.881 5.676 5.676 0 01-.485-2.362c0-.858.162-1.645.485-2.362a5.721 5.721 0 011.364-1.881 6.199 6.199 0 012.066-1.246 7.417 7.417 0 012.593-.44c.948 0 1.815.147 2.601.44.787.293 1.47.708 2.05 1.246a5.888 5.888 0 011.363 1.881 5.59 5.59 0 01.494 2.362c0 .858-.165 1.648-.494 2.37a5.78 5.78 0 01-1.363 1.882 6.197 6.197 0 01-2.05 1.237c-.786.294-1.653.44-2.601.44zM.931 61.341V49.94h10.992v11.4H8.644v-8.845h-4.45v8.845H.93z" fill="#fff"/></mask><g mask="url(#b)"><path d="M119.231 49.71H.931v13.928h118.3V49.711z" fill="#fff"/></g><mask id="c" style="mask-type:luminance" maskUnits="userSpaceOnUse" x="32" y="1" width="55" height="28"><path d="M33.35 25.41a1.527 1.527 0 01-.678-2.087c.405-.758 1.365-1.053 2.143-.66a27.645 27.645 0 008.789 2.717c1.367.18 2.808.262 4.305.208-7.751-4.77-11.053-10.214-11.627-14.653-.459-3.54.78-6.51 2.925-8.188 2.23-1.746 5.359-2.105 8.56-.326 3.51 1.95 7.163 6.656 9.575 15.277 3.064-8.9 7.497-13.48 11.672-15.19C72.918.91 76.632 1.723 79.041 3.88c2.426 2.172 3.512 5.679 2.14 9.445-1.44 3.95-5.685 8.213-14.166 11.3 2.59.556 5.34.801 7.93.599 3.366-.264 6.42-1.288 8.365-3.393a1.618 1.618 0 012.243-.115c.652.572.705 1.55.118 2.184-2.549 2.759-6.356 4.086-10.479 4.409-4.748.37-9.966-.599-14.07-2.229a1.56 1.56 0 01-.937-1.034c-.226-.825.277-1.673 1.124-1.893 10.589-2.776 15.485-7.036 16.877-10.856.908-2.493.24-4.768-1.294-6.142-1.551-1.389-4.006-1.886-6.649-.804-4.236 1.735-8.859 7.308-11.524 19.162-.135.6-.632 1.09-1.292 1.198-.865.14-1.682-.428-1.827-1.27-2.008-11.591-5.824-17.347-9.399-19.334-1.944-1.08-3.766-.925-5.008.047-1.327 1.039-2.08 2.988-1.769 5.394.558 4.31 4.438 9.872 14.118 14.574v.002c.41.2.729.57.84 1.038.195.832-.34 1.66-1.194 1.851-3.558.796-6.947.83-10.007.427a30.927 30.927 0 01-9.831-3.03z" fill="#fff"/></mask><g mask="url(#c)"><path d="M86.258.642h-53.99v28.2h53.99V.643z" fill="#fff"/></g></svg>