<svg width="96" height="66" fill="none" xmlns="http://www.w3.org/2000/svg"><mask id="a" style="mask-type:luminance" maskUnits="userSpaceOnUse" x="27" y="24" width="41" height="41"><path d="M67.83 51.41v12.844H27.028V51.41h2.545v10.367h35.712V51.41h2.545zM28.3 24.529h39.53v12.844h-2.544V27.006H29.573v10.367h-2.545V24.53h1.273z" fill="#fff"/></mask><g mask="url(#a)"><path d="M67.83 24.529H27.028v39.725H67.83V24.53z" fill="url(#paint0_linear_5_942)"/></g><mask id="b" style="mask-type:luminance" maskUnits="userSpaceOnUse" x="0" y="39" width="96" height="12"><path d="M91.113 45.398l-1.203-2.916-1.202 2.916h2.405zm-9.3 3.675l-2.122-3.492h-1.21v3.492h-2.637v-9.122h2.636v3.545h1.277l2.23-3.545h2.784l-2.93 4.411 2.778 4.426 4.007-8.837h2.61l4.149 9.122h-2.758l-.73-1.772h-3.973l-.73 1.772h-5.381zm-10.533-3.11a9.038 9.038 0 01-.877.236 5.37 5.37 0 01-1.118.124c-1.311 0-2.313-.304-3.004-.912-.692-.608-1.038-1.494-1.038-2.658V39.95h2.61v2.515c0 .59.15 1.032.449 1.323.299.29.738.436 1.318.436.375 0 .73-.037 1.064-.11.214-.048.413-.112.596-.193V39.95h2.61v9.122h-2.61v-3.11zm-11.94 1.156c.357 0 .69-.06.997-.182a2.31 2.31 0 00.803-.528 2.48 2.48 0 00.536-.828 2.84 2.84 0 00.194-1.068c0-.4-.065-.758-.194-1.075a2.495 2.495 0 00-.536-.821 2.311 2.311 0 00-.803-.528 2.69 2.69 0 00-.997-.182c-.357 0-.69.06-.997.182a2.311 2.311 0 00-.803.528c-.228.23-.406.504-.536.82a2.838 2.838 0 00-.194 1.076c0 .39.065.747.194 1.069.13.32.308.597.536.827.227.23.495.406.803.528.308.121.64.182.997.182zm0 2.137a5.93 5.93 0 01-2.075-.351 4.958 4.958 0 01-1.652-.997 4.581 4.581 0 01-1.091-1.505 4.542 4.542 0 01-.388-1.89c0-.686.129-1.316.388-1.89a4.581 4.581 0 011.09-1.504 4.962 4.962 0 011.654-.997 5.932 5.932 0 012.074-.352c.759 0 1.452.117 2.081.352a4.87 4.87 0 011.64.997c.464.43.828.931 1.09 1.505.264.573.395 1.203.395 1.89a4.52 4.52 0 01-1.485 3.4 4.956 4.956 0 01-1.64.99 5.915 5.915 0 01-2.08.352zm-11.725-4.6h1.473c.553 0 .966-.117 1.238-.352.272-.234.408-.56.408-.977 0-.425-.136-.756-.408-.99-.272-.235-.685-.352-1.238-.352h-1.473v2.671zm-2.65 4.418v-9.122h4.283c.857 0 1.595.135 2.215.404.62.27 1.1.658 1.44 1.167.338.508.508 1.11.508 1.804 0 .687-.17 1.282-.509 1.785-.339.504-.818.893-1.439 1.167-.62.273-1.358.41-2.215.41h-1.633v2.385h-2.65zm-5.342-3.675l-1.202-2.917-1.203 2.917h2.405zM33 49.073l4.136-9.122h2.61l4.149 9.122h-2.758l-.73-1.772h-3.973l-.73 1.772H33zm-10.93-2.046a.958.958 0 00.698-.306c.2-.213.361-.51.482-.893.12-.382.21-.834.267-1.355.058-.521.1-1.09.127-1.707l.108-2.815H31.3v7.076h1.272v3.883H30.15v-1.837h-5.996v1.837h-2.436v-3.883h.354zm6.62 0v-5.03H26l-.04.99c-.018.53-.051 1.026-.1 1.486-.05.46-.116.882-.201 1.264s-.196.71-.335.984a2.205 2.205 0 01-.185.306h3.551zm-12.54.091c.356 0 .689-.06.997-.182a2.31 2.31 0 00.803-.528c.227-.23.406-.506.535-.828a2.84 2.84 0 00.194-1.068c0-.4-.065-.758-.194-1.075a2.497 2.497 0 00-.535-.821 2.31 2.31 0 00-.803-.528 2.69 2.69 0 00-.998-.182c-.357 0-.689.06-.997.182a2.313 2.313 0 00-.803.528 2.5 2.5 0 00-.535.82c-.13.318-.194.676-.194 1.076 0 .39.064.747.194 1.069.13.32.308.597.535.827.228.23.495.406.803.528.308.121.64.182.997.182zm0 2.137c-.75 0-1.442-.117-2.075-.351a4.957 4.957 0 01-1.653-.997 4.58 4.58 0 01-1.091-1.505 4.542 4.542 0 01-.388-1.89c0-.686.13-1.316.388-1.89a4.577 4.577 0 011.09-1.504 4.96 4.96 0 011.654-.997 5.931 5.931 0 012.074-.352c.759 0 1.453.117 2.081.352a4.87 4.87 0 011.64.997c.464.43.828.931 1.09 1.505.264.573.396 1.203.396 1.89a4.52 4.52 0 01-.395 1.895 4.622 4.622 0 01-1.09 1.505 4.955 4.955 0 01-1.64.99 5.912 5.912 0 01-2.082.352zM.744 49.073v-9.122H9.54v9.122H6.915v-7.076h-3.56v7.076H.745z" fill="#fff"/></mask><g mask="url(#b)"><path d="M95.385 39.769H.745V50.91h94.64V39.769z" fill="url(#paint1_linear_5_942)"/></g><mask id="c" style="mask-type:luminance" maskUnits="userSpaceOnUse" x="25" y="1" width="44" height="22"><path d="M26.68 20.328a1.222 1.222 0 01-.542-1.67 1.288 1.288 0 011.714-.527 22.117 22.117 0 007.031 2.173c1.094.144 2.246.21 3.444.166-6.2-3.816-8.842-8.17-9.302-11.722-.366-2.832.625-5.208 2.34-6.55C33.15.8 35.653.514 38.214 1.938c2.807 1.56 5.73 5.324 7.66 12.22 2.45-7.12 5.997-10.783 9.337-12.151 3.123-1.28 6.095-.629 8.022 1.097 1.94 1.737 2.81 4.543 1.711 7.556-1.151 3.16-4.547 6.57-11.332 9.04 2.072.445 4.273.641 6.343.48 2.694-.212 5.138-1.031 6.693-2.715a1.295 1.295 0 011.794-.092c.522.457.564 1.24.095 1.747-2.04 2.207-5.085 3.269-8.383 3.527-3.799.297-7.973-.479-11.256-1.783a1.248 1.248 0 01-.75-.827c-.18-.66.222-1.338.9-1.515 8.47-2.22 12.387-5.628 13.5-8.684.728-1.995.193-3.815-1.035-4.914-1.24-1.11-3.204-1.509-5.318-.643-3.389 1.388-7.087 5.846-9.22 15.33-.108.48-.505.872-1.034.958-.691.112-1.345-.343-1.46-1.016-1.608-9.273-4.66-13.878-7.52-15.468-1.556-.864-3.013-.74-4.006.038-1.062.831-1.665 2.39-1.415 4.316.446 3.448 3.55 7.897 11.294 11.659v.001c.328.16.583.456.67.83.157.666-.27 1.33-.953 1.482a22.877 22.877 0 01-8.006.34 24.738 24.738 0 01-7.865-2.423z" fill="#fff"/></mask><g mask="url(#c)"><path d="M69.007.513H25.814v22.561h43.193V.514z" fill="url(#paint2_linear_5_942)"/></g><defs><linearGradient id="paint0_linear_5_942" x1="65.253" y1="54.054" x2="30.063" y2="33.929" gradientUnits="userSpaceOnUse"><stop stop-color="#CA0041"/><stop offset="1" stop-color="#662082"/></linearGradient><linearGradient id="paint1_linear_5_942" x1="50.504" y1="56.275" x2="45.868" y2="34.352" gradientUnits="userSpaceOnUse"><stop stop-color="#CA0041"/><stop offset="1" stop-color="#662082"/></linearGradient><linearGradient id="paint2_linear_5_942" x1="59.083" y1="23.824" x2="36.596" y2="-.624" gradientUnits="userSpaceOnUse"><stop stop-color="#CA0041"/><stop offset="1" stop-color="#662082"/></linearGradient></defs></svg>